<svg id="图层_1" data-name="图层 1" xmlns="http://www.w3.org/2000/svg" xmlns:xlink="http://www.w3.org/1999/xlink" viewBox="0 0 200 200"><defs><style>.cls-1{fill:url(#未命名的渐变_33);}.cls-2,.cls-3{fill:#fff;}.cls-2{fill-rule:evenodd;}</style><linearGradient id="未命名的渐变_33" x1="-958.23" y1="-3057.68" x2="-867.37" y2="-2966.82" gradientTransform="translate(-812.8 -2912.25) rotate(180)" gradientUnits="userSpaceOnUse"><stop offset="0" stop-color="#e6c9a4"/><stop offset="1" stop-color="#c49557"/></linearGradient></defs><title>星空标志-星空业主</title><ellipse class="cls-1" cx="100" cy="100" rx="64.68" ry="63.81" transform="translate(-41.42 100) rotate(-45)"/><polygon class="cls-2" points="43 116.75 43.27 116.81 47.46 108.33 47.19 108.27 43 116.75"/><polygon class="cls-2" points="47.38 87.5 47.15 87.67 55.75 104.79 55.97 104.62 47.38 87.5"/><polygon class="cls-2" points="42.58 116.31 42.88 116.23 41.37 91.78 41.07 91.86 42.58 116.31"/><polygon class="cls-2" points="41.3 91.35 41.05 91.49 47.07 108.43 47.31 108.29 41.3 91.35"/><polygon class="cls-2" points="47.47 88.11 47.19 88.17 47.17 108.44 47.45 108.38 47.47 88.11"/><polygon class="cls-2" points="41 91.68 41.21 91.87 47.31 87.51 47.1 87.32 41 91.68"/><polygon class="cls-2" points="52.33 66.84 52.05 66.8 41.02 92.13 41.3 92.17 52.33 66.84"/><polygon class="cls-2" points="52.18 67.03 51.89 67.02 46.87 87.64 47.16 87.65 52.18 67.03"/><rect class="cls-3" x="126.08" y="125.01" width="0.28" height="26.83" transform="translate(-55.13 185.41) rotate(-62.17)"/><polygon class="cls-2" points="114.57 132.19 114.29 132.23 117.3 155.03 117.57 154.99 114.57 132.19"/><polygon class="cls-2" points="138.23 144.5 138.14 144.24 117.31 154.59 117.4 154.85 138.23 144.5"/><polygon class="cls-2" points="114.35 132.78 114.1 132.66 91.47 159.45 91.73 159.57 114.35 132.78"/><polygon class="cls-2" points="114.41 132.71 114.22 132.5 83.3 149.05 83.5 149.25 114.41 132.71"/><polygon class="cls-2" points="117.92 154.74 117.8 154.49 90.86 159.84 90.98 160.09 117.92 154.74"/><polygon class="cls-2" points="91.83 160.39 91.98 160.16 81.92 149.52 81.77 149.76 91.83 160.39"/><polygon class="cls-2" points="91.16 160.11 91.21 159.84 60.46 145.17 60.4 145.44 91.16 160.11"/><polygon class="cls-2" points="73.63 146.27 73.76 146.03 56.23 126.84 56.1 127.09 73.63 146.27"/><polygon class="cls-2" points="73.34 146.41 73.32 146.13 59.62 144.94 59.64 145.22 73.34 146.41"/><polygon class="cls-2" points="82.71 149.75 82.74 149.47 73.52 145.85 73.48 146.13 82.71 149.75"/><polygon class="cls-2" points="82.25 148.43 82.53 148.41 88.55 113.91 88.27 113.93 82.25 148.43"/><polygon class="cls-2" points="76.39 140.37 76.44 140.09 55.84 126.28 55.8 126.56 76.39 140.37"/><polygon class="cls-2" points="82.58 149.42 82.77 149.21 76.66 140.8 76.47 141.01 82.58 149.42"/><polygon class="cls-2" points="73.23 145.87 73.5 145.81 75.95 139.74 75.68 139.8 73.23 145.87"/><polygon class="cls-2" points="75.39 141.09 75.67 141.15 88.44 111.88 88.16 111.83 75.39 141.09"/><polygon class="cls-2" points="65.78 120.67 65.58 120.86 75.88 140.07 76.08 139.88 65.78 120.67"/><polygon class="cls-2" points="60.14 145.47 60.34 145.27 42.65 116.16 42.45 116.35 60.14 145.47"/><polygon class="cls-2" points="59.79 144.72 60.06 144.65 56.32 126.76 56.05 126.84 59.79 144.72"/><polygon class="cls-2" points="55.97 126.87 56.16 126.68 47.52 108.55 47.32 108.75 55.97 126.87"/><polygon class="cls-2" points="65.47 120.93 65.52 120.66 47.8 108.77 47.75 109.05 65.47 120.93"/><polygon class="cls-2" points="88.59 111.98 88.4 111.78 65.75 121.32 65.94 121.52 88.59 111.98"/><polygon class="cls-2" points="56.12 104.88 55.91 105.07 66.03 121.34 66.24 121.15 56.12 104.88"/><polygon class="cls-2" points="88.33 112.32 88.27 112.05 56.81 105.21 56.86 105.48 88.33 112.32"/><polygon class="cls-2" points="69.79 50.41 69.53 50.31 52.06 67.52 52.31 67.62 69.79 50.41"/><polygon class="cls-2" points="62.35 86.61 62.23 86.36 47.45 87.31 47.56 87.57 62.35 86.61"/><polygon class="cls-2" points="61.55 67.73 61.29 67.61 47.28 87.28 47.55 87.39 61.55 67.73"/><polygon class="cls-2" points="61.5 67.18 61.39 66.92 51.8 67.58 51.91 67.84 61.5 67.18"/><polygon class="cls-2" points="62.97 85.36 62.69 85.37 56.27 104.72 56.54 104.71 62.97 85.36"/><polygon class="cls-2" points="86.88 111.68 86.98 111.42 63.18 87.19 63.08 87.45 86.88 111.68"/><polygon class="cls-2" points="97.53 81.54 97.39 81.3 63.74 85.92 63.88 86.15 97.53 81.54"/><polygon class="cls-2" points="82.53 51.94 82.26 51.9 62.95 85.24 63.23 85.27 82.53 51.94"/><polygon class="cls-2" points="61.77 66.57 61.49 66.64 62.37 86.94 62.65 86.87 61.77 66.57"/><polygon class="cls-2" points="81.72 52.27 81.51 52.08 62.22 66.6 62.44 66.79 81.72 52.27"/><polygon class="cls-2" points="70.2 50.27 69.92 50.2 61.5 67.49 61.78 67.56 70.2 50.27"/><polygon class="cls-2" points="83.06 51.68 82.84 51.85 97.58 81.31 97.8 81.14 83.06 51.68"/><polygon class="cls-2" points="114.76 47.92 115.34 48.23 99.16 81.07 98.39 80.62 114.76 47.92"/><polygon class="cls-2" points="103.78 47.51 104.03 47.61 98.05 81.22 97.79 81.12 103.78 47.51"/><polygon class="cls-2" points="93.28 41.72 93.09 41.52 70.09 50.03 70.28 50.23 93.28 41.72"/><polygon class="cls-2" points="112.56 43.22 112.46 42.96 92.78 41.7 92.88 41.96 112.56 43.22"/><polygon class="cls-2" points="131.51 51.38 131.5 51.1 112.3 42.74 112.3 43.02 131.51 51.38"/><polygon class="cls-2" points="93.84 41.78 93.61 41.61 82.41 51.53 82.64 51.7 93.84 41.78"/><polygon class="cls-2" points="70.42 50.11 70.39 50.38 82.23 51.39 82.26 51.11 70.42 50.11"/><polygon class="cls-2" points="82.26 51.41 82.31 51.68 103.69 47.18 103.64 46.91 82.26 51.41"/><rect class="cls-3" x="98.42" y="38.27" width="0.28" height="12.5" transform="translate(15.57 113.86) rotate(-64.19)"/><polygon class="cls-2" points="103.52 47.16 103.64 47.41 112.56 43.09 112.44 42.84 103.52 47.16"/><polygon class="cls-2" points="103.76 47 103.74 47.28 115.6 48 115.62 47.73 103.76 47"/><rect class="cls-3" x="113.62" y="42.73" width="0.28" height="5.87" transform="translate(-8.05 59.38) rotate(-28.3)"/><polygon class="cls-2" points="131.98 51.59 131.92 51.32 114.62 47.71 114.68 47.98 131.98 51.59"/><polygon class="cls-2" points="131.99 51.59 132.22 51.44 152.48 72.16 152.25 72.31 131.99 51.59"/><polygon class="cls-2" points="115.32 48.28 115.55 48.13 136.72 65.96 136.48 66.11 115.32 48.28"/><polygon class="cls-2" points="114.92 48.76 115.19 48.69 130.9 80.6 130.63 80.67 114.92 48.76"/><polygon class="cls-2" points="136.47 66.03 136.72 65.89 156.09 84.5 155.85 84.64 136.47 66.03"/><polygon class="cls-2" points="136.33 66.41 136.53 66.22 132.31 51.95 132.1 52.13 136.33 66.41"/><polygon class="cls-2" points="152.19 72.39 152.17 72.12 136.57 66.15 136.59 66.42 152.19 72.39"/><polygon class="cls-2" points="155.67 84.68 155.59 84.41 130.69 80.84 130.77 81.11 155.67 84.68"/><polygon class="cls-2" points="156.05 85.13 156.25 84.93 151.85 72.06 151.65 72.25 156.05 85.13"/><polygon class="cls-2" points="131 80.59 131.28 80.57 136.33 66.46 136.05 66.47 131 80.59"/><circle class="cls-3" cx="137.45" cy="144.55" r="1.46"/><circle class="cls-3" cx="114.69" cy="132.64" r="1.88"/><circle class="cls-3" cx="117.28" cy="154.93" r="1.01"/><circle class="cls-3" cx="91.06" cy="160.38" r="1.45"/><circle class="cls-3" cx="82.16" cy="149.76" r="1.87"/><circle class="cls-3" cx="76" cy="139.73" r="1.87"/><circle class="cls-3" cx="59.86" cy="144.81" r="1.51"/><circle class="cls-3" cx="73.44" cy="146.16" r="1.51"/><circle class="cls-3" cx="55.96" cy="126.47" r="1.51"/><circle class="cls-3" cx="42.85" cy="116.51" r="1.51"/><circle class="cls-3" cx="47.79" cy="108.51" r="1.51"/><circle class="cls-3" cx="66.04" cy="120.91" r="1.87"/><circle class="cls-3" cx="55.97" cy="105.05" r="1.87"/><circle class="cls-3" cx="98.02" cy="81.23" r="1.87"/><circle class="cls-3" cx="47.35" cy="87.71" r="1.51"/><circle class="cls-3" cx="41.52" cy="91.91" r="1.51"/><circle class="cls-3" cx="62.31" cy="86.6" r="2.45"/><circle class="cls-3" cx="88.15" cy="112.2" r="2.45"/><circle class="cls-3" cx="51.92" cy="67.35" r="1.51"/><circle class="cls-3" cx="61.39" cy="67.3" r="1.88"/><circle class="cls-3" cx="82.13" cy="51.39" r="1.85"/><circle class="cls-3" cx="69.95" cy="50.5" r="1.51"/><circle class="cls-3" cx="92.78" cy="41.61" r="1.51"/><circle class="cls-3" cx="112.1" cy="42.94" r="1.51"/><circle class="cls-3" cx="103.73" cy="47.55" r="1.51"/><circle class="cls-3" cx="114.8" cy="47.77" r="1.85"/><circle class="cls-3" cx="131.87" cy="51.79" r="1.51"/><circle class="cls-3" cx="136.37" cy="66.24" r="1.51"/><circle class="cls-3" cx="152.08" cy="72.66" r="1.51"/><circle class="cls-3" cx="130.94" cy="80.73" r="1.16"/><polygon class="cls-2" points="115.2 47.92 114.61 48.23 130.8 81.07 131.56 80.62 115.2 47.92"/><polygon class="cls-2" points="130.78 80.35 130.71 81 156.83 85.19 156.89 84.31 130.78 80.35"/><polygon class="cls-2" points="96.22 81.17 96.3 81.82 62.92 86.65 62.85 85.77 96.22 81.17"/><polygon class="cls-2" points="86.78 111.76 87.23 111.28 63.63 87.01 63.04 87.67 86.78 111.76"/><polygon class="cls-2" points="88.11 113.33 88.76 113.45 82.69 149.12 81.83 148.91 88.11 113.33"/><polygon class="cls-2" points="113.41 132.72 113.7 133.31 81.83 150.41 81.47 149.6 113.41 132.72"/><polygon class="cls-2" points="114.43 131.74 114.14 132.34 137.55 144.66 137.9 143.85 114.43 131.74"/><path class="cls-2" d="M112.73,91.58l-1.45,1.16a5.81,5.81,0,0,0-1-.89,2.54,2.54,0,0,0-1.34-.29,2.57,2.57,0,0,0-1.56.44,1.33,1.33,0,0,0-.6,1.12,1.36,1.36,0,0,0,.52,1,7.23,7.23,0,0,0,1.78,1,13,13,0,0,1,2,1,5,5,0,0,1,1.15,1,4.11,4.11,0,0,1,.67,1.2,4,4,0,0,1,.22,1.33,3.75,3.75,0,0,1-1.18,2.79,4,4,0,0,1-2.87,1.15,4.85,4.85,0,0,1-2.9-.9,5.68,5.68,0,0,1-1.93-2.7l1.79-.51a3.16,3.16,0,0,0,3,2.22,2.31,2.31,0,0,0,1.61-.58,1.9,1.9,0,0,0,.64-1.47,2,2,0,0,0-.34-1.07,3,3,0,0,0-.83-.88,9.11,9.11,0,0,0-1.59-.81,11.84,11.84,0,0,1-1.68-.84,4.33,4.33,0,0,1-1-.89,3.83,3.83,0,0,1-.63-1,3,3,0,0,1-.2-1.1A3.08,3.08,0,0,1,106,90.7a4,4,0,0,1,2.74-1,5.53,5.53,0,0,1,2.17.46,4.46,4.46,0,0,1,1.82,1.41Zm2-1.45h8v1.79h-3.13v11.33h-1.79V91.92h-3.11V90.13Zm14.74-.51,6.16,13.63h-1.86l-1.52-3.36h-5.55l-1.51,3.36h-1.85l6.12-13.63Zm0,4.12-2.09,4.66h4.2l-2.1-4.66Zm8.35-3.62h2.83a5.36,5.36,0,0,1,3.44,1.06,3.3,3.3,0,0,1,1.33,2.7,3.49,3.49,0,0,1-.85,2.32,4.76,4.76,0,0,1-2.67,1.42l3.77,5.62h-2L140,97.85h-.4v5.4h-1.79V90.13Zm1.79,1.58v4.58q3.95.08,3.95-2.3a2,2,0,0,0-.46-1.37,2.33,2.33,0,0,0-1.23-.72A10.09,10.09,0,0,0,139.61,91.71Z"/><path class="cls-2" d="M115.4,121.55h-2.81v-5.46H107v5.46h-2.81V108.31H107v5.34h5.62v-5.34h2.81v13.24Zm1.29-6.45A7.16,7.16,0,0,1,118.5,110a6.2,6.2,0,0,1,4.78-2,5.87,5.87,0,0,1,4.55,1.89,6.94,6.94,0,0,1,1.72,4.86,7.08,7.08,0,0,1-1.79,5,6.64,6.64,0,0,1-9.29.06,6.7,6.7,0,0,1-1.77-4.81Zm3-.15a5.1,5.1,0,0,0,.93,3.16,3,3,0,0,0,2.54,1.23,3.07,3.07,0,0,0,2.57-1.18,5,5,0,0,0,.92-3.16,5.37,5.37,0,0,0-.89-3.27,3,3,0,0,0-2.52-1.2,3.1,3.1,0,0,0-2.6,1.23,5.08,5.08,0,0,0-.95,3.19Zm23.23,6.6v-8c0-.74,0-1.67.11-2.8h-.07a14.58,14.58,0,0,1-.41,1.7l-3.25,9.13H137l-3.29-9a18.1,18.1,0,0,1-.42-1.79h-.08c.08,1.11.11,2.23.11,3.34v7.49h-2.54V108.31h4.09l2.84,8a9.64,9.64,0,0,1,.48,1.86h.06c.17-.72.36-1.35.54-1.88l2.85-8h4v13.24Zm12.69,0h-7.8V108.31h7.5v2.31h-4.69v3.12h4.36V116h-4.36v3.21h5Z"/></svg>